Coordinates
version=1
nRows=8
nColumns=40
inDegrees=yes

Units are S.I. units (second, meters, Newtons, ...)
Angles are in degrees.

endheader
time	pelvis_tilt	pelvis_list	pelvis_rotation	pelvis_tx	pelvis_ty	pelvis_tz	hip_flexion_r	hip_adduction_r	hip_rotation_r	knee_angle_r	knee_angle_r_beta	ankle_angle_r	subtalar_angle_r	mtp_angle_r	hip_flexion_l	hip_adduction_l	hip_rotation_l	knee_angle_l	knee_angle_l_beta	ankle_angle_l	subtalar_angle_l	mtp_angle_l	lumbar_extension	lumbar_bending	lumbar_rotation	arm_flex_r	arm_add_r	arm_rot_r	elbow_flex_r	pro_sup_r	wrist_flex_r	wrist_dev_r	arm_flex_l	arm_add_l	arm_rot_l	elbow_flex_l	pro_sup_l	wrist_flex_l	wrist_dev_l
      2.59000000	     -6.77320688	     -5.73365081	      6.49026042	      0.92189671	      0.91520062	      0.48075648	      2.13732730	      2.15630412	    -18.98209881	     11.64234213	     11.64234213	     17.55640909	     -1.82225734	     -1.94084185	     32.55185280	     -5.48369984	     -3.27145851	     19.48779164	     19.48779164	      2.30807144	    -10.71707083	      3.33047351	     -7.98085045	      4.72324512	      4.04334070	     41.47451372	    -17.52567809	     -7.17682454	    104.87835053	     44.26348416	      0.00000000	      0.00000000	     -6.80771675	    -10.56466124	      4.47971495	     23.55096352	     44.80409344	      0.00000000	      0.00000000
      2.60185714	     -6.70169857	     -5.57416006	      6.44732405	      0.92357628	      0.91408683	      0.47818149	      1.74957110	      1.76626501	    -18.77546387	     12.32167099	     12.32167099	     18.02523048	     -2.13513933	     -1.98995426	     32.29789563	     -5.27462386	     -3.34744899	     20.39159776	     20.39159776	      1.88235492	    -11.03563293	      3.16022389	     -7.80743589	      4.53339446	      3.82600543	     41.14797485	    -17.03288780	     -6.96509197	    105.49482230	     44.24517008	      0.00000000	      0.00000000	     -6.71458342	    -10.73181046	      4.52174386	     23.56943811	     44.80774084	      0.00000000	      0.00000000
      2.61371429	     -6.53026113	     -5.35927862	      6.45430079	      0.92522949	      0.91349507	      0.47543926	      1.22275769	      1.33053161	    -18.61347226	     12.91631387	     12.91631387	     18.28032361	     -2.42286679	     -2.02486899	     31.92891789	     -4.99397069	     -3.31337859	     21.25917535	     21.25917535	      1.71876771	    -11.30386469	      2.99593436	     -7.73494353	      4.27472931	      3.66899071	     40.54561058	    -16.62440011	     -6.75030344	    105.74995014	     44.23082523	      0.00000000	      0.00000000	     -6.39777689	    -10.88019468	      4.51811403	     23.68471436	     44.81742735	      0.00000000	      0.00000000
      2.62557143	     -6.59479302	     -5.16492807	      6.37771063	      0.92640711	      0.91259505	      0.47266615	      1.59407074	      0.69737267	    -18.14693522	     14.71979263	     14.71979263	     18.77169162	     -3.46729342	     -1.86623668	     31.93322823	     -4.69975100	     -3.14651463	     22.27063926	     22.27063926	      1.68743088	    -11.88945484	      2.58399107	     -7.53293273	      4.07964247	      3.54972206	     39.68185464	    -16.24530369	     -6.56238146	    107.12566635	     44.19510978	      0.00000000	      0.00000000	     -6.17419219	    -11.00547223	      4.47832098	     23.95301902	     44.84432361	      0.00000000	      0.00000000
      2.63742857	     -6.39743434	     -4.94521946	      6.33419028	      0.92771015	      0.91256314	      0.46974044	      1.54987804	      0.10026430	    -17.79036301	     16.23449537	     16.23449537	     18.92268469	     -4.22528170	     -1.86865747	     31.59938674	     -4.40217485	     -2.99171486	     23.20742409	     23.20742409	      2.00464231	    -12.35260323	      2.30579778	     -7.57998918	      3.87370965	      3.49149213	     38.66360937	    -15.93557659	     -6.38141360	    107.58739323	     44.17981294	      0.00000000	      0.00000000	     -5.75570230	    -11.12725139	      4.42800643	     24.17374588	     44.86983516	      0.00000000	      0.00000000
      2.64928571	     -6.07754703	     -4.80704818	      6.38613043	      0.92892827	      0.91316818	      0.46667579	      1.41229760	     -0.40988647	    -17.61887950	     17.76313501	     17.76313501	     18.77870403	     -4.94653106	     -1.94020716	     31.05085602	     -4.14168818	     -2.71697094	     23.94620538	     23.94620538	      2.53851459	    -12.68055589	      2.04540539	     -7.75767609	      3.78618833	      3.32532980	     37.44834123	    -15.52365812	     -6.11289883	    107.69108116	     44.16731729	      0.00000000	      0.00000000	     -5.12440188	    -11.12001077	      4.39628289	     24.44658744	     44.89138065	      0.00000000	      0.00000000
      2.66114286	     -6.05392330	     -4.51190702	      6.24395834	      0.92959245	      0.91345707	      0.46367087	      2.26218788	     -1.29658974	    -16.96450190	     20.50487932	     20.50487932	     18.62139002	     -6.38379308	     -2.22800705	     30.79588716	     -3.75515721	     -2.68247306	     24.67260731	     24.67260731	      3.15518897	    -13.14843179	      1.91320056	     -7.68543881	      3.52600261	      3.35026895	     36.11138390	    -15.26888046	     -5.86523215	    108.02425300	     44.15174924	      0.00000000	      0.00000000	     -4.53567735	    -11.18946435	      4.27943150	     24.75789267	     44.93062086	      0.00000000	      0.00000000
      2.67300000	     -6.04794841	     -4.31954085	      6.15667392	      0.93005602	      0.91410287	      0.46066196	      3.25297331	     -2.04472114	    -16.30027961	     23.35233084	     23.35233084	     18.07802251	     -8.07958441	     -2.49281633	     30.42119566	     -3.42084064	     -2.55329021	     25.08965066	     25.08965066	      3.89104091	    -13.49441801	      1.98487661	     -7.59512448	      3.38091300	      3.45046920	     34.54506498	    -15.15150821	     -5.66616398	    108.21348114	     44.14452911	      0.00000000	      0.00000000	     -3.77303252	    -11.09897184	      4.09873159	     25.18815054	     44.98667220	      0.00000000	      0.00000000
